<svg height="512pt" viewBox="0 0 512 512" width="512pt" xmlns="http://www.w3.org/2000/svg"><path d="m256 512c-68.378906 0-132.667969-26.628906-181.019531-74.980469-48.351563-48.351562-74.980469-112.640625-74.980469-181.019531s26.628906-132.667969 74.980469-181.019531c48.351562-48.351563 112.640625-74.980469 181.019531-74.980469s132.667969 26.628906 181.019531 74.980469c48.351563 48.351562 74.980469 112.640625 74.980469 181.019531s-26.628906 132.667969-74.980469 181.019531c-48.351562 48.351563-112.640625 74.980469-181.019531 74.980469zm0 0" fill="#24d8f7"/><path d="m437.019531 74.980469c-48.351562-48.351563-112.640625-74.980469-181.019531-74.980469v512c68.378906 0 132.667969-26.628906 181.019531-74.980469 48.351563-48.351562 74.980469-112.640625 74.980469-181.019531s-26.628906-132.667969-74.980469-181.019531zm0 0" fill="#00c1f1"/><path d="m256 30c-124.617188 0-226 101.382812-226 226s101.382812 226 226 226 226-101.382812 226-226-101.382812-226-226-226zm0 0" fill="#d7e9ff"/><path d="m256 30v452c124.617188 0 226-101.382812 226-226s-101.382812-226-226-226zm0 0" fill="#bbdcff"/><path d="m256 456c-27.804688 0-54.734375-5.628906-80.046875-16.726562-24.429687-10.710938-46.191406-25.984376-64.6875-45.386719-5.617187-5.898438-5.507813-15.199219.253906-20.957031l47.535157-47.535157c2.8125-2.8125 6.628906-4.394531 10.605468-4.394531h172.675782c3.980468 0 7.792968 1.582031 10.605468 4.394531l47.539063 47.535157c5.757812 5.757812 5.867187 15.0625.25 20.957031-18.492188 19.40625-40.253907 34.675781-64.683594 45.386719-25.3125 11.097656-52.246094 16.726562-80.046875 16.726562zm0 0" fill="#515e84"/><path d="m336.046875 439.273438c24.429687-10.710938 46.191406-25.984376 64.6875-45.386719 5.617187-5.898438 5.503906-15.199219-.253906-20.957031l-47.535157-47.535157c-2.8125-2.816406-6.628906-4.394531-10.605468-4.394531h-86.339844v135c27.800781 0 54.734375-5.628906 80.046875-16.726562zm0 0" fill="#394670"/><path d="m311.800781 121.285156c-7.65625-3.167968-16.429687.464844-19.597656 8.117188l-34.253906 82.691406c-.644531-.027344-1.296875-.050781-1.949219-.050781-24.238281 0-43.957031 19.71875-43.957031 43.957031s19.71875 43.957031 43.957031 43.957031 43.957031-19.71875 43.957031-43.957031c0-12.816406-5.515625-24.367188-14.296875-32.40625l34.257813-82.710938c3.171875-7.652343-.464844-16.429687-8.117188-19.597656zm0 0" fill="#ff455a"/><path d="m299.957031 256c0-12.816406-5.515625-24.367188-14.296875-32.40625l34.257813-82.710938c3.171875-7.652343-.464844-16.425781-8.117188-19.597656-7.65625-3.167968-16.429687.464844-19.597656 8.117188l-34.253906 82.691406c-.644531-.027344-1.296875-.050781-1.949219-.050781v87.910156c24.238281.003906 43.957031-19.714844 43.957031-43.953125zm0 0" fill="#f40238"/><path d="m256 56c-110.28125 0-200 89.71875-200 200 0 8.285156 6.714844 15 15 15h.054688 26.613281c8.285156 0 15-6.714844 15-15s-6.714844-15-15-15h-11.011719c3.128906-35.628906 17.300781-68.132812 39.054688-94.074219l7.722656 7.722657c2.929687 2.929687 6.769531 4.394531 10.605468 4.394531 3.839844 0 7.679688-1.464844 10.609376-4.394531 5.855468-5.859376 5.855468-15.355469 0-21.210938l-7.730469-7.730469c25.941406-21.753906 58.453125-35.910156 94.078125-39.039062v11c0 8.28125 6.71875 15 15 15 8.285156 0 15-6.71875 15-15v-11c35.628906 3.128906 68.140625 17.285156 94.082031 39.039062l-7.730469 7.730469c-5.855468 5.855469-5.855468 15.351562 0 21.210938 2.929688 2.929687 6.769532 4.394531 10.605469 4.394531 3.839844 0 7.679687-1.464844 10.609375-4.394531l7.722656-7.722657c21.753906 25.941407 35.925782 58.445313 39.054688 94.074219h-11.011719c-8.285156 0-15 6.714844-15 15s6.714844 15 15 15h26.671875c8.285156 0 15-6.714844 15-15 0-110.28125-89.71875-200-200-200zm0 0" fill="#515e84"/><path d="m256 56v56.667969c8.285156 0 15-6.71875 15-15v-11c35.628906 3.128906 68.136719 17.285156 94.078125 39.039062l-7.726563 7.730469c-5.859374 5.855469-5.859374 15.351562 0 21.210938 2.929688 2.929687 6.765626 4.394531 10.605469 4.394531 3.839844 0 7.679688-1.464844 10.605469-4.394531l7.722656-7.722657c21.757813 25.941407 35.929688 58.445313 39.058594 94.074219h-11.015625c-8.28125 0-15 6.714844-15 15s6.71875 15 15 15h26.671875c8.285156 0 15-6.714844 15-15 0-110.28125-89.71875-200-200-200zm0 0" fill="#394670"/></svg>